<?xml version="1.0" encoding="utf-8"?>
<!-- Generator: Adobe Illustrator 17.0.0, SVG Export Plug-In . SVG Version: 6.00 Build 0)  -->
<!DOCTYPE svg PUBLIC "-//W3C//DTD SVG 1.1//EN" "http://www.w3.org/Graphics/SVG/1.1/DTD/svg11.dtd">
<svg version="1.1" id="Layer_1" xmlns="http://www.w3.org/2000/svg" xmlns:xlink="http://www.w3.org/1999/xlink" xmlns:pulse="pulse" xmlns:show="show" xmlns:hide="hide" x="0px" y="0px"
	 width="115.298px" height="285.141px" viewBox="0 0 115.298 285.141" enable-background="new 0 0 115.298 285.141"
	 xml:space="preserve">
<path fill="#040202" d="M2.835,186.01c19.074,8.097,37.75,12.146,56.027,12.146c18.256,0,36.124-4.036,53.602-12.109V3.713
	c0-0.24-0.1-0.46-0.259-0.62c-0.16-0.16-0.379-0.259-0.62-0.259H3.713c-0.242,0-0.463,0.098-0.622,0.257l0.002,0.003
	c-0.16,0.16-0.259,0.379-0.259,0.62L2.835,186.01L2.835,186.01z M3.713,0h107.871c1.023,0,1.952,0.418,2.624,1.09
	s1.09,1.601,1.09,2.624v277.714c0,1.019-0.418,1.946-1.09,2.618v0.005c-0.672,0.672-1.601,1.09-2.624,1.09H3.713
	c-1.018,0-1.946-0.418-2.618-1.09l-0.005-0.005c-0.672-0.673-1.09-1.6-1.09-2.618V3.713C0,2.691,0.417,1.762,1.09,1.09h0.005
	C1.768,0.418,2.695,0,3.713,0z"/>
<path fill="#040202" d="M86.092,87.267c-6.687-6.687-15.925-10.823-26.129-10.823S40.52,80.58,33.833,87.267
	S23.01,103.192,23.01,113.396s4.136,19.442,10.823,26.129s15.925,10.823,26.129,10.823s19.442-4.136,26.129-10.823
	s10.823-15.925,10.823-26.129C96.915,103.192,92.778,93.953,86.092,87.267 M59.962,75.026c10.595,0,20.188,4.295,27.132,11.238
	c6.943,6.943,11.238,16.536,11.238,27.132c0,10.595-4.295,20.188-11.238,27.132c-6.943,6.943-16.536,11.238-27.131,11.238
	s-20.188-4.295-27.132-11.238c-6.943-6.943-11.238-16.536-11.238-27.132c0-10.595,4.295-20.188,11.238-27.131
	C39.774,79.321,49.367,75.026,59.962,75.026z"/>
<path fill="#040202" d="M81.754,91.604c-5.577-5.577-13.281-9.026-21.792-9.026s-16.215,3.449-21.792,9.026
	s-9.026,13.281-9.026,21.792c0,8.51,3.45,16.215,9.026,21.792s13.281,9.026,21.792,9.026s16.215-3.449,21.792-9.026
	s9.026-13.282,9.026-21.792C90.78,104.886,87.331,97.181,81.754,91.604 M59.962,79.743c9.292,0,17.706,3.767,23.796,9.857
	s9.857,14.503,9.857,23.796c0,9.292-3.767,17.706-9.857,23.796c-6.09,6.09-14.504,9.857-23.796,9.857s-17.706-3.767-23.796-9.857
	s-9.857-14.504-9.857-23.796S30.076,95.69,36.166,89.6C42.257,83.51,50.67,79.743,59.962,79.743z"/>
<path pulse:initial="true" pulse:address=".*" fill="#040202" d="M81.754,91.604c-5.577-5.577-13.281-9.026-21.792-9.026s-16.215,3.449-21.792,9.026
	s-9.026,13.281-9.026,21.792c0,8.51,3.45,16.215,9.026,21.792s13.281,9.026,21.792,9.026s16.215-3.449,21.792-9.026
	s9.026-13.282,9.026-21.792C90.78,104.886,87.331,97.181,81.754,91.604z"/>
</svg>
