<?xml version="1.0" standalone="no"?>
<!DOCTYPE svg PUBLIC "-//W3C//DTD SVG 20010904//EN"
 "http://www.w3.org/TR/2001/REC-SVG-20010904/DTD/svg10.dtd">
<svg version="1.0" xmlns="http://www.w3.org/2000/svg"
 width="505.000000pt" height="209.000000pt" viewBox="0 0 505.000000 209.000000"
 preserveAspectRatio="xMidYMid meet">
<metadata>
Created by potrace 1.13, written by Peter Selinger 2001-2015
</metadata>
<g transform="translate(0.000000,209.000000) scale(0.100000,-0.100000)"
fill="#000000" stroke="none">
<path d="M915 1526 c-34 -15 -60 -42 -69 -72 -5 -16 -156 -879 -156 -891 0 -1
46 -3 103 -3 l103 0 34 200 33 200 114 0 c104 0 114 -2 109 -17 -3 -10 -17
-88 -31 -173 -14 -85 -28 -168 -31 -183 l-6 -28 98 3 98 3 76 440 c78 450 80
479 45 515 -22 21 -474 27 -520 6z m315 -204 c18 -22 18 -29 -6 -139 -4 -22
-8 -23 -114 -23 -61 0 -110 1 -110 3 0 9 22 124 26 140 10 31 54 48 123 44 51
-2 67 -7 81 -25z"/>
<path d="M1572 1520 c-18 -11 -39 -35 -47 -52 -14 -33 -145 -783 -145 -833 0
-14 11 -37 25 -51 l25 -25 245 3 245 3 30 31 c29 28 33 43 61 194 16 89 29
167 29 171 0 5 -44 9 -99 9 l-98 0 -13 -92 c-18 -133 -14 -129 -118 -126 -83
3 -87 4 -90 27 -5 33 78 543 91 559 7 9 35 12 96 10 l86 -3 0 -35 c-1 -19 -4
-61 -9 -92 l-7 -58 98 0 99 0 24 150 c26 165 23 195 -20 217 -18 9 -89 13
-250 13 -207 0 -228 -2 -258 -20z"/>
<path d="M2182 1493 c-6 -27 -13 -69 -17 -95 l-7 -48 72 0 73 0 -6 -42 c-8
-55 -115 -684 -123 -721 l-6 -27 110 0 110 0 10 58 c5 31 36 209 68 394 l59
338 76 0 76 0 12 73 c7 39 15 82 18 95 l5 22 -260 0 -260 0 -10 -47z"/>
<path d="M2755 1518 c-2 -13 -39 -221 -80 -463 -42 -242 -78 -452 -81 -467
l-6 -28 100 0 100 0 6 28 c3 15 40 225 81 467 42 242 78 450 80 463 5 22 4 22
-95 22 -95 0 -100 -1 -105 -22z"/>
<path d="M3065 1530 c-11 -4 -31 -20 -45 -34 -22 -24 -31 -66 -92 -419 -37
-216 -68 -411 -68 -434 0 -33 5 -46 26 -62 25 -20 39 -21 258 -21 214 0 233 2
264 20 18 11 39 35 46 53 7 17 44 213 81 434 74 435 75 442 19 463 -31 12
-461 12 -489 0z m292 -197 c9 -23 -72 -550 -87 -569 -14 -16 -165 -21 -175 -5
-7 12 72 537 85 569 9 20 16 22 90 22 66 0 82 -3 87 -17z"/>
<path d="M3665 1528 c-5 -16 -165 -944 -165 -958 0 -7 37 -10 107 -8 l108 3
36 208 c20 114 39 210 42 213 3 3 53 -92 111 -211 l105 -216 57 3 58 3 82 475
c46 261 83 481 83 488 1 9 -23 12 -89 12 -63 0 -92 -4 -95 -12 -3 -7 -21 -105
-40 -217 -20 -113 -37 -206 -38 -208 -2 -1 -52 96 -112 217 l-109 220 -68 0
c-46 0 -70 -4 -73 -12z"/>
</g>
</svg>
