<?xml version="1.0" encoding="utf-8"?>
<!-- Generator: Adobe Illustrator 17.0.0, SVG Export Plug-In . SVG Version: 6.00 Build 0)  -->
<!DOCTYPE svg PUBLIC "-//W3C//DTD SVG 1.1//EN" "http://www.w3.org/Graphics/SVG/1.1/DTD/svg11.dtd">
<svg version="1.1" id="Layer_1" xmlns="http://www.w3.org/2000/svg" xmlns:xlink="http://www.w3.org/1999/xlink" x="0px" y="0px"
	 width="249.659px" height="337.961px" viewBox="0 0 249.659 337.961" enable-background="new 0 0 249.659 337.961"
	 xml:space="preserve">
<g>
	<path d="M107.844,99.196c0.687,0.77,1.537,1.387,2.507,1.805c0.607,0.261,1.26,0.446,1.951,0.543l0.004,0.004l0.104,0.011
		c0.31,0.039,0.627,0.061,0.951,0.064h0.006l0.012,0h0.006h0.006l0.017,0h0.006h0.006h0.006h0.005h0.006h0.005h0.005
		c1.1,0,2.188-0.218,3.215-0.613h0.003c1.052-0.405,2.036-0.999,2.897-1.736l0.041-0.035l0,0l0.04-0.035l0.001,0l0.04-0.035
		l0.001-0.001l0.039-0.034l0.001-0.001l0.039-0.034l0.002-0.002l0.038-0.035l0.002-0.002l0.038-0.034l0.002-0.002l0.037-0.034
		l0.003-0.003l0.037-0.034l0.003-0.003l0.036-0.034l0.003-0.003l0.035-0.034l0.003-0.003l0.035-0.034l0.004-0.004l0.035-0.034
		l0.004-0.004l0.034-0.034l0.004-0.005l0.033-0.034l0.005-0.005l0.033-0.033l0.005-0.005l0.033-0.033l0.005-0.006l0.032-0.033
		l0.006-0.006l0.032-0.033l0.006-0.006l0.031-0.033l0.006-0.006l0.031-0.032l0.006-0.007l0.03-0.032l0.007-0.007l0.03-0.032
		l0.007-0.008l0.029-0.032l0.007-0.008l0.029-0.032l0.008-0.009l0.028-0.032l0.008-0.009l0.028-0.031l0.008-0.009l0.028-0.031
		l0.008-0.009l0.027-0.031l0.009-0.01l0.027-0.031l0.009-0.01l0.026-0.031l0.009-0.011l0.026-0.031l0.009-0.011l0.025-0.031
		l0.009-0.011l0.025-0.03l0.01-0.012l0.024-0.03l0.01-0.012l0.024-0.03l0.01-0.013l0.024-0.03l0.01-0.013l0.023-0.03l0.01-0.013
		l0.023-0.029l0.01-0.014l0.023-0.029l0.011-0.014l0.022-0.029l0.011-0.014l0.022-0.028l0.011-0.015l0.021-0.028l0.011-0.016
		l0.021-0.028l0.012-0.016l0.02-0.028l0.012-0.016l0.02-0.028l0.012-0.016l0.02-0.028l0.012-0.017l0.019-0.027l0.012-0.017
		l0.019-0.027l0.013-0.018l0.018-0.027l0.012-0.018l0.018-0.027l0.013-0.019l0.031-0.045l0.018-0.026l0.013-0.019l0.017-0.026
		l0.013-0.02l0.017-0.026l0.013-0.02l0.016-0.026l0.013-0.02l0.016-0.025l0.013-0.021l0.016-0.025l0.014-0.021l0.015-0.025
		l0.014-0.022l0.015-0.024l0.014-0.022l0.015-0.024l0.013-0.023l0.056-0.094l0.014-0.023l0.014-0.024l0.013-0.021l0.014-0.024
		l0.012-0.021l0.015-0.025l0.012-0.02l0.014-0.026l0.012-0.021l0.014-0.026l0.011-0.02l0.015-0.026l0.011-0.02l0.014-0.027
		l0.01-0.019l0.014-0.027l0.01-0.019l0.015-0.027l0.01-0.019l0.015-0.028l0.009-0.018l0.014-0.029l0.048-0.094l0.009-0.017
		l0.015-0.03l0.008-0.017l0.015-0.031l0.008-0.017l0.015-0.031l0.008-0.016l0.015-0.032l0.007-0.016l0.015-0.033l0.022-0.048
		l0.007-0.015l0.015-0.033l0.049-0.111l0.015-0.035l0.006-0.014l0.015-0.035l0.006-0.013l0.015-0.035l0.005-0.013l0.015-0.036
		l0.005-0.013l0.073-0.185l0.004-0.011l0.015-0.039c0.038-0.1,0.074-0.2,0.109-0.301l0.003-0.008
		c0.045-0.132,0.087-0.265,0.126-0.399l0.002-0.005l0.013-0.046c0.039-0.138,0.075-0.275,0.109-0.415l0.001-0.002l0.035-0.156h0
		c0.027-0.122,0.051-0.244,0.073-0.367l0.044-0.249l-0.003-0.007c0.163-1.104,0.113-2.169-0.12-3.151
		c-0.259-1.089-0.746-2.083-1.42-2.925c-0.684-0.854-1.559-1.546-2.579-2.019c-0.973-0.451-2.076-0.702-3.266-0.702
		c-1.175,0-2.329,0.246-3.408,0.689c-1.111,0.456-2.14,1.122-3.023,1.943c-0.867,0.805-1.599,1.764-2.142,2.823
		c-0.527,1.027-0.877,2.148-1,3.314c-0.122,1.153-0.014,2.247,0.285,3.237C106.618,97.478,107.147,98.416,107.844,99.196z
		 M107.697,93.369c0.101-0.954,0.388-1.873,0.822-2.719c0.45-0.877,1.062-1.676,1.792-2.354c0.738-0.685,1.594-1.24,2.514-1.618
		c0.872-0.358,1.809-0.557,2.767-0.557c0.942,0,1.805,0.194,2.558,0.543c0.78,0.361,1.449,0.89,1.971,1.543
		c0.514,0.642,0.888,1.408,1.089,2.256c0.037,0.154,0.068,0.311,0.093,0.471c-0.353-0.288-0.744-0.533-1.165-0.729
		c-0.75-0.347-1.598-0.54-2.512-0.54c-0.899,0-1.782,0.188-2.608,0.528c-0.848,0.348-1.632,0.856-2.306,1.481
		c-0.661,0.613-1.218,1.344-1.633,2.153c-0.403,0.784-0.67,1.641-0.764,2.532c-0.094,0.885-0.01,1.723,0.219,2.484v0.003
		c0.046,0.152,0.098,0.3,0.155,0.446c-0.61-0.311-1.146-0.725-1.588-1.22c-0.528-0.592-0.933-1.312-1.177-2.121
		C107.685,95.162,107.599,94.29,107.697,93.369z"/>
	<path d="M248.16,26.606c-1.301-6.682-9.253-16.831-11.601-19.141l-0.001,0.001c-1.237-1.416-3.953-2.837-6.798-3.545l0,0.002
		c-0.713-0.249-1.513-0.345-2.362-0.328C175.182-3.537,130.679,1.204,102.386,6.5l0.13,0.697l-0.152-0.692
		c-12.681,2.79-18.851,9.841-26.404,30.179c-0.163,0.439-0.338,0.92-0.521,1.429c-0.078,0.216-0.157,0.44-0.238,0.669
		c-0.103,0.289-0.208,0.588-0.316,0.896c-0.122,0.347-0.247,0.707-0.375,1.077c-0.184,0.533-0.373,1.083-0.571,1.663
		C66.56,64.092,50.37,117.372,42.751,142.606c-0.117,0.388-0.232,0.768-0.345,1.143c-0.011,0.036-0.022,0.073-0.033,0.109
		c-3.601,2.849-7.074,5.938-10.385,9.271c-1.169,1.177-2.305,2.376-3.415,3.592c-16.713,17.838-26.743,39.9-28.35,62.587
		c-1.659,23.427,5.914,44.68,21.323,59.844c1.862,1.832,3.828,3.543,5.875,5.149l0.001,0.002
		c8.557,10.03,30.153,25.777,55.018,40.119c4.862,2.804,9.721,5.475,14.501,7.966c9.08,3.699,18.904,5.574,29.199,5.574
		c1.796,0,3.627-0.059,5.443-0.174c22.984-1.46,45.688-11.98,63.928-29.624c18.587-17.978,30.627-41.413,33.902-65.991
		c2.816-21.125-1.281-41.676-11.523-57.918c10.63-42.853,28.633-117.321,30.421-127.322
		C250.165,46.568,250.116,36.648,248.16,26.606z M235.632,8.406c-0.024-0.004-0.049-0.006-0.073-0.009l0.503-0.427L235.632,8.406z
		 M235.481,8.387c-1.363-0.186-2.859-0.003-4.447,0.578c-6.433,2.354-13.291,10.544-15.615,18.646
		c-0.709,2.475-2.311,7.736-4.526,15.018c-2.083,6.845-4.73,15.541-7.639,25.228c-0.836,2.782-1.694,5.654-2.566,8.579
		c-8.234,27.633-17.763,60.746-22.594,82.227c-0.009,0.037-0.044,0.174-0.097,0.378c-0.007,0.026-0.011,0.042-0.019,0.071
		c-0.002,0.008-0.005,0.019-0.007,0.027c-0.203,0.773-0.624,2.358-1.048,3.959l-0.133,0.503c-2.744-2.816-5.481-5.603-8.11-8.267
		c9.583-40.993,32.459-115.065,36.29-126.786c0.061-0.187,0.119-0.362,0.171-0.519c3.942-11.904,7.2-16.01,10.879-18.512
		c3.418-2.326,8.069-4.382,11.308-4.501c0.708,0.097,1.412,0.188,2.124,0.289C232.262,6.012,234.592,7.378,235.481,8.387z
		 M170.321,163.053c0.423,0.852,0.828,1.713,1.217,2.581c0.083,0.186,0.164,0.374,0.246,0.561c0.384,0.877,0.756,1.76,1.105,2.653
		c0.037,0.095,0.071,0.193,0.107,0.288c1.022,2.65,1.88,5.37,2.592,8.145c0.129,0.505,0.262,1.008,0.381,1.517
		c0.148,0.63,0.281,1.265,0.413,1.9c0.13,0.631,0.254,1.264,0.369,1.9c0.103,0.569,0.204,1.14,0.294,1.713
		c0.123,0.783,0.229,1.572,0.329,2.363c0.057,0.452,0.123,0.901,0.172,1.355c0.135,1.249,0.246,2.506,0.323,3.773
		c0.015,0.247,0.018,0.497,0.031,0.744c0.055,1.054,0.093,2.113,0.107,3.179c0.006,0.431,0.001,0.865,0,1.298
		c-0.002,0.901-0.016,1.805-0.046,2.714c-0.016,0.463-0.034,0.926-0.057,1.39c-0.046,0.93-0.111,1.865-0.188,2.802
		c-0.034,0.417-0.061,0.832-0.101,1.249c-0.128,1.342-0.279,2.688-0.47,4.042c-3.231,22.968-15.118,44.875-33.468,61.687
		c-18.001,16.491-40.391,26.324-63.045,27.688c-0.859,0.052-1.722,0.089-2.582,0.116c-0.468,0.014-0.933,0.017-1.4,0.024
		c-0.386,0.006-0.773,0.016-1.157,0.017c-0.243,0-0.485-0.007-0.729-0.008c-0.921-0.005-1.839-0.027-2.752-0.062
		c-0.305-0.012-0.611-0.022-0.916-0.037c-1.108-0.055-2.212-0.126-3.308-0.224c-0.116-0.01-0.231-0.024-0.347-0.034
		c-1.146-0.107-2.286-0.234-3.418-0.388c-0.035-0.005-0.069-0.009-0.104-0.013c-12.281-1.686-23.622-6.117-33.191-12.964
		c-0.034-0.025-0.069-0.049-0.104-0.073c-1.641-1.179-3.22-2.442-4.752-3.762c12.371,9.991,28.276,15.43,45.651,15.43
		c1.669,0,3.374-0.051,5.064-0.15c22.672-1.333,45.217-11.386,63.481-28.308c18.688-17.315,30.791-39.729,34.08-63.11
		c2.332-16.574,0.054-32.189-6.435-45.508c0.066-0.295,0.134-0.597,0.202-0.896c0.761,1.294,1.49,2.603,2.165,3.938
		C170.162,162.74,170.243,162.896,170.321,163.053z M32.649,154.553c18.705-18.496,42.409-29.394,66.745-30.688
		c1.584-0.084,3.182-0.127,4.748-0.127c15.154,0,29.179,3.947,40.924,11.333c3.833,2.672,7.374,5.755,10.571,9.228
		c14.338,15.575,20.414,37.079,17.11,60.552c-3.242,23.06-15.189,45.174-33.639,62.269c-18.024,16.698-40.256,26.618-62.601,27.933
		c-1.663,0.098-3.339,0.146-4.981,0.146c-20.022,0-38.061-7.326-50.792-20.63C6.751,259.96,0.215,239.566,2.331,217.145
		c2.021-21.409,11.667-42.354,27.295-59.474C30.613,156.618,31.615,155.575,32.649,154.553z M166.867,156.872l-0.001,0.005
		l0.001,0.002c-0.054,0.235-0.109,0.474-0.162,0.706c-0.993-1.882-2.069-3.717-3.235-5.497c0.098,0.099,0.199,0.201,0.297,0.3
		C164.856,153.848,165.9,155.337,166.867,156.872z M102.652,7.893c27.433-5.134,70.156-9.747,120.369-3.443
		c-3.028,1.007-6.021,2.686-7.8,3.896c-3.917,2.665-7.359,6.956-11.428,19.239c-3.303,9.974-25.185,80.695-35.436,122.983
		c-0.065,0.269-0.132,0.542-0.196,0.808c-0.04,0.166-0.078,0.328-0.118,0.493c-0.132,0.551-0.263,1.099-0.391,1.639
		c-0.003,0.011-0.005,0.022-0.008,0.034c-0.048,0.202-0.094,0.4-0.141,0.601l-0.002-0.002l-0.002,0.008
		c-0.881-0.892-1.762-1.781-2.64-2.668c-1.246-1.668-2.545-3.302-3.945-4.869c-4.442-4.97-9.509-9.226-15.073-12.728
		c-11.755-8.186-26.184-12.583-41.836-12.583c-2.354,0-4.76,0.101-7.152,0.299c-18.542,1.538-36.742,8.817-52.554,20.788
		c0.135-0.447,0.273-0.903,0.413-1.367c0.382-1.264,0.783-2.59,1.2-3.968c0.168-0.556,0.339-1.121,0.513-1.695
		c0.151-0.499,0.304-1.004,0.459-1.516c0.736-2.43,1.513-4.992,2.325-7.664c0.036-0.119,0.073-0.241,0.11-0.361
		c7.745-25.494,18.475-60.454,24.707-79.201c0.718-2.161,1.376-4.105,1.964-5.796c0.008-0.023,0.017-0.048,0.025-0.072
		c0.219-0.631,0.428-1.222,0.626-1.78c0.016-0.046,0.034-0.096,0.05-0.142c0.213-0.596,0.414-1.147,0.601-1.651
		C84.632,17.404,90.56,10.558,102.652,7.893z M228.009,241.985c-3.234,24.263-15.125,47.404-33.483,65.159
		c-17.998,17.41-40.384,27.79-63.032,29.229c-12.013,0.762-23.563-1.041-33.958-5.271c-4.702-2.454-9.543-5.115-14.388-7.91
		c-20.67-11.922-39.047-24.794-49.467-34.49c0.378,0.235,0.77,0.45,1.152,0.678c0.503,0.301,1.005,0.603,1.516,0.892
		c0.505,0.285,1.019,0.556,1.531,0.829c0.552,0.295,1.103,0.592,1.664,0.873c0.512,0.256,1.032,0.498,1.551,0.743
		c0.565,0.267,1.127,0.536,1.7,0.789c0.575,0.254,1.159,0.491,1.742,0.731c0.518,0.213,1.033,0.432,1.557,0.634
		c0.707,0.273,1.424,0.525,2.141,0.778c0.404,0.142,0.804,0.292,1.211,0.427c0.895,0.299,1.8,0.573,2.708,0.839
		c0.238,0.07,0.473,0.147,0.713,0.214c1.08,0.306,2.17,0.585,3.267,0.845c0.084,0.02,0.166,0.043,0.25,0.063
		c1.163,0.271,2.336,0.515,3.516,0.734c0.046,0.008,0.091,0.019,0.136,0.027c0.182,0.033,0.361,0.077,0.543,0.109
		c1.026,0.181,2.063,0.335,3.104,0.477c0.064,0.009,0.129,0.016,0.193,0.025c1.11,0.149,2.227,0.276,3.352,0.381
		c0.153,0.014,0.304,0.032,0.457,0.045c1.101,0.097,2.209,0.17,3.321,0.225c0.32,0.016,0.642,0.026,0.964,0.039
		c0.92,0.035,1.843,0.056,2.77,0.062c0.18,0.001,0.357,0.012,0.537,0.012c0.074,0,0.15-0.003,0.225-0.003
		c0.383-0.001,0.767-0.012,1.151-0.018c0.479-0.007,0.955-0.01,1.435-0.025c0.875-0.027,1.751-0.066,2.629-0.119
		c22.978-1.383,45.678-11.347,63.917-28.057c18.593-17.033,30.637-39.241,33.915-62.534c0.192-1.366,0.344-2.724,0.474-4.078
		c0.04-0.415,0.069-0.828,0.103-1.242c0.079-0.961,0.144-1.919,0.192-2.874c0.022-0.447,0.043-0.894,0.058-1.339
		c0.034-0.99,0.049-1.976,0.05-2.958c0-0.357,0.008-0.716,0.004-1.073c-0.016-1.311-0.057-2.615-0.133-3.91
		c-0.017-0.287-0.047-0.569-0.066-0.855c-0.069-0.999-0.152-1.995-0.257-2.984c-0.053-0.501-0.117-0.999-0.179-1.497
		c-0.095-0.763-0.201-1.522-0.318-2.278c-0.086-0.559-0.174-1.118-0.271-1.673c-0.12-0.676-0.255-1.346-0.392-2.016
		c-0.507-2.494-1.135-4.94-1.878-7.339c-0.105-0.337-0.205-0.676-0.314-1.011c-0.268-0.823-0.554-1.638-0.849-2.448
		c-0.096-0.263-0.194-0.524-0.293-0.786c-0.331-0.877-0.673-1.748-1.037-2.61c-0.007-0.016-0.015-0.033-0.022-0.049
		c-1.206-2.848-2.595-5.606-4.154-8.27c-0.078-0.134-0.148-0.271-0.227-0.404c6.786,6.891,14.206,14.521,20.485,21.221
		c0.429,0.458,0.845,0.904,1.25,1.34c0.06,0.065,0.121,0.13,0.181,0.194c7.727,8.314,11.171,12.542,12.548,14.645
		c0.025,0.039,0.052,0.079,0.076,0.116c0.091,0.141,0.17,0.27,0.241,0.392c0.119,0.205,0.229,0.403,0.304,0.568l0,0
		c0.006,0.012,0.013,0.026,0.018,0.038c2.188,4.183,4.082,9.142,5.633,14.741l0.697,2.52l0.67-2.527
		c0.434-1.635,1.016-3.886,1.732-6.701c0.068-0.266,0.139-0.547,0.209-0.822c0.051-0.203,0.102-0.401,0.155-0.609
		c0.115-0.453,0.233-0.921,0.354-1.397c0.001-0.004,0.002-0.008,0.003-0.012c1.083-4.28,2.376-9.45,3.82-15.261
		C226.953,201.944,230.713,221.69,228.009,241.985z M246.917,56.683c-1.769,9.887-19.414,82.898-30.075,125.912l-0.001-0.002
		l-0.397,1.604c-2.671,10.764-4.728,18.937-6.021,23.932c-1.433-4.693-3.115-8.899-5.005-12.509
		c-0.086-0.192-0.202-0.41-0.341-0.649c-0.075-0.129-0.175-0.281-0.265-0.424c-0.073-0.114-0.137-0.222-0.219-0.344
		c-0.137-0.207-0.3-0.436-0.465-0.668c-0.05-0.07-0.095-0.135-0.147-0.207c-0.202-0.279-0.427-0.579-0.667-0.892
		c-0.017-0.022-0.032-0.042-0.049-0.064c-3.773-4.915-12.125-14.013-25.324-27.586l0.082-0.308l0.001,0l0.381-1.437
		c0.725-2.733,1.046-3.943,1.072-4.064c7.111-31.624,24.442-88.568,32.771-115.934c2.219-7.288,3.821-12.554,4.534-15.04
		c2.175-7.585,8.787-15.528,14.739-17.706c2.342-0.856,4.338-0.76,5.933,0.283c3.331,4.014,8.353,11.359,9.315,16.297
		C248.691,36.744,248.739,46.494,246.917,56.683z"/>
	<path d="M38.435,252.814c1.132,1.175,2.336,2.294,3.607,3.353c1.267,1.057,2.591,2.044,3.965,2.959
		c0.88,0.585,1.777,1.139,2.688,1.66c0.741,0.423,1.502,0.831,2.285,1.223l-0.01,0.038l0.52,0.253
		c3.814,1.853,7.962,3.245,12.384,4.109c4.285,0.838,8.834,1.182,13.593,0.973c7.963-0.349,15.825-2.22,23.238-5.329
		c7.65-3.208,14.832-7.741,21.163-13.285c1.806-1.582,3.543-3.244,5.199-4.978c1.48-1.549,2.898-3.158,4.249-4.82l0.002,0.002
		l0.326-0.409l0.001-0.001l0.07-0.088l0.07-0.088l0.012-0.015l0.012-0.015l0.012-0.015l0.012-0.015l0.012-0.016l0.012-0.015
		l0.012-0.016l0.012-0.015l0.012-0.016l0.013-0.016l0.012-0.016l0.012-0.016l0.268-0.336l-0.002-0.002l0,0l0,0l0.013-0.016h0
		l0.007-0.008l0.018-0.023l0.001-0.002l0.001,0l0.006-0.008l0.006-0.008l0.001-0.001l0.007-0.008l0.006-0.007l0.001-0.001
		l0.012-0.015l0.001-0.002l0.007-0.009l0.005-0.006l0.001-0.002l0.007-0.009l0.005-0.006l0.002-0.002l0.007-0.008l0.005-0.006
		l0.002-0.003l0.007-0.009l0.004-0.005l0.002-0.003l0.007-0.008l0.004-0.005l0.002-0.003l0.007-0.008l0.004-0.005l0.003-0.004
		l0.007-0.009l0.004-0.005l0.003-0.004l0.007-0.008l0.003-0.005l0.003-0.004l0.007-0.009l0.003-0.004l0.003-0.005l0.007-0.009
		l0.003-0.004l0.004-0.005l0.007-0.009l0.003-0.003l0.004-0.006l0.007-0.008l0.002-0.003l0.004-0.006l0.007-0.009l0.002-0.003
		l0.005-0.006l0.007-0.009l0.002-0.002l0.005-0.006l0.007-0.009l0.002-0.002l0.005-0.007l0.007-0.009l0.001-0.001l0.005-0.007
		l0.007-0.009l0.001-0.001l0.006-0.008l0.007-0.009l0.001-0.001l0.006-0.008l0.007-0.009l0,0l0.006-0.008l0.007-0.009l0,0
		l0.007-0.009l0.007-0.009v0l0.007-0.009l0.007-0.008l0,0l0.007-0.009l0.006-0.008l0.001-0.001l0.007-0.009l0.006-0.008l0.001-0.001
		l0.007-0.009l0.006-0.007l0.001-0.002l0.007-0.009l0.005-0.006l0.002-0.003l0.007-0.009l0.003-0.004l0.009-0.012l0.003-0.004
		l0.009-0.012l0.003-0.004l0.009-0.012l0.003-0.004l0.009-0.012l0.003-0.004l0.009-0.012l0.003-0.004l0.009-0.012l0.003-0.004
		l0.009-0.012l0.003-0.004l0.009-0.012l0.003-0.005l0.009-0.012l0.003-0.005l0.009-0.012l0.003-0.004l0.009-0.012l0.003-0.004
		l0.009-0.012l0.004-0.004l0.009-0.012l0.003-0.005l0.009-0.012l0.003-0.004l0.009-0.012l0.003-0.005l0.009-0.012l0.003-0.005
		l0.009-0.012l0.003-0.005l0.009-0.012l0.003-0.005l0.009-0.012l0.003-0.005l0.009-0.012l0.003-0.005l0.009-0.012l0.003-0.004
		l0.009-0.012l0.003-0.005l0.009-0.012l0.003-0.005l0.009-0.012l0.003-0.005l0.009-0.012l0.003-0.004l0.009-0.012l0.003-0.005
		l0.009-0.012l0.003-0.005l0.009-0.012l0.003-0.005l0.009-0.012l0.003-0.005l0.009-0.012l0.003-0.005l0.009-0.012l0.004-0.005
		l0.009-0.012l0.003-0.005l0.009-0.012l0.003-0.005l0.009-0.012l0.003-0.005l0.022-0.029l0.003-0.005l0.009-0.012l0.003-0.005
		l0.035-0.046l0.003-0.005l0.009-0.012l0.003-0.005l0.009-0.012l0.003-0.005l0.009-0.012l0.016-0.022l0.009-0.012l0.003-0.005
		l0.009-0.012l0.003-0.005l0.009-0.012l0.016-0.022l0.009-0.012l0.025-0.034l0.003-0.005l0.009-0.012l0.016-0.022l0.009-0.012
		l0.029-0.039l0.009-0.012l0.016-0.022l0.009-0.012l0.029-0.039l0.009-0.012l0.025-0.034l0.102-0.138l0.017-0.023
		c1.044-1.414,2.044-2.867,2.995-4.357c0.981-1.538,1.903-3.102,2.759-4.684c0.39-0.721,0.761-1.434,1.112-2.138
		c0.34-0.681,0.684-1.402,1.033-2.163c1.268-2.766,2.359-5.609,3.255-8.514c0.877-2.844,1.568-5.75,2.053-8.702
		c0.905-5.502,1.041-10.816,0.484-15.846c-0.575-5.194-1.891-10.089-3.862-14.581c-1.035-2.36-2.252-4.609-3.637-6.732
		c-1.392-2.134-2.953-4.139-4.668-5.998c-5.038-5.462-11.43-9.678-18.789-12.299c-7.088-2.524-15.074-3.568-23.612-2.821
		c-8.474,0.742-16.654,3.135-24.224,6.807c-7.926,3.845-15.182,9.095-21.403,15.323c-6.046,6.052-11.093,13.039-14.798,20.586
		c-3.591,7.313-5.921,15.15-6.677,23.17c-0.742,7.858,0.088,15.212,2.223,21.808C30.024,241.816,33.671,247.871,38.435,252.814z
		 M135.358,230.963c-0.434,0.68-0.879,1.354-1.336,2.022c0.148-0.434,0.328-0.857,0.537-1.264c0.494-0.962,1.154-1.844,1.939-2.602
		C136.125,229.74,135.745,230.355,135.358,230.963z M63.145,219.139l0.59-1.126l5.513-21.468c0.371-0.407,0.768-0.833,1.19-1.276
		c0.445-0.468,0.893-0.927,1.342-1.377c6.109-6.116,13.234-11.272,21.015-15.047c7.415-3.597,15.429-5.942,23.731-6.668
		c4.695-0.411,9.215-0.268,13.5,0.374c4.305,0.645,8.376,1.796,12.151,3.395c1.851,4.292,3.09,8.961,3.639,13.912
		c0.544,4.906,0.411,10.092-0.473,15.464c-0.475,2.887-1.151,5.73-2.009,8.514c-0.822,2.666-1.812,5.278-2.953,7.821l-0.008-0.001
		l-0.005-0.001l-0.003-0.001l-0.008-0.001l-0.007-0.001l-0.001,0l-0.008-0.001l-0.008-0.001l-0.008-0.002l-0.008-0.001l-0.001,0
		l-0.007-0.001l-0.008-0.001l-0.002,0l-0.006-0.001l-0.008-0.001l-0.003-0.001l-0.005-0.001l-0.008-0.001l-0.004-0.001l-0.003-0.001
		l-0.008-0.001l-0.006-0.001l-0.002,0l-0.008-0.001l-0.007-0.001l-0.001,0l-0.008-0.001l-0.008-0.001l-0.008-0.001l-0.008-0.001
		l-0.001,0l-0.007-0.001l-0.008-0.001l-0.003,0l-0.005-0.001l-0.008-0.001l-0.004,0l-0.004-0.001l-0.008-0.001l-0.005-0.001
		l-0.003,0l-0.008-0.002l-0.006-0.001l-0.002,0l-0.008-0.001l-0.007-0.001h-0.001l-0.008-0.001l-0.008-0.001h0l-0.007-0.001
		l-0.008-0.001l-0.002,0l-0.006-0.001l-0.008-0.001l-0.003,0l-0.005-0.001l-0.008-0.001l-0.004-0.001l-0.004-0.001l-0.008-0.001
		l-0.005-0.001l-0.003,0l-0.008-0.001l-0.007-0.001l-0.001,0L140,221.595l-0.008-0.001h0l-0.008-0.001l-0.008-0.001h-0.001
		l-0.007-0.001l-0.008-0.001l-0.002,0l-0.006-0.001l-0.008-0.001l-0.003-0.001l-0.005-0.001l-0.008-0.001l-0.004-0.001l-0.003,0
		l-0.008-0.001l-0.006-0.001l-0.003,0l-0.008-0.001l-0.007-0.001l-0.001,0l-0.008-0.001l-0.008-0.001
		c-0.368-0.046-0.744-0.069-1.126-0.069c-1.301,0-2.579,0.272-3.773,0.762c-1.233,0.506-2.375,1.246-3.357,2.157
		c-0.964,0.895-1.777,1.959-2.38,3.135c-0.585,1.139-0.971,2.381-1.108,3.673c-0.135,1.275-0.015,2.482,0.315,3.577
		c0.347,1.151,0.929,2.182,1.694,3.039l-0.002,0.001l0.002,0.003l0.002,0.003l0,0.001l0.002,0.002l0.002,0.003l0.001,0.001
		l0.001,0.001l0.002,0.002l0.001,0.002l0.001,0.001l0.002,0.003l0.002,0.002l0.002,0.003l0.002,0.003l0.001,0l0.002,0.002
		l0.002,0.003l0.001,0.001l0.001,0.001l0.002,0.002l0,0.001l0.002,0.002l0,0.001l0.002,0.002l0.002,0.002v0l0.002,0.002l0.002,0.003
		l0,0l0.002,0.002l0.002,0.003l0.001,0.001l0.001,0.001l0.004,0.004l0.001,0.001l0.002,0.003l0.002,0.002v0l0.002,0.002l0.002,0.003
		l0,0l0.002,0.002l0.002,0.003l0.001,0.001l0.001,0.001l0.002,0.002l0.002,0.002l0.001,0.001l0.002,0.002l0.002,0.002v0l0.002,0.003
		l0.002,0.002l0,0l0.002,0.002l0.002,0.003l0.001,0.001l0.001,0.001l0.002,0.002l0.001,0.001l0.001,0.001l0.002,0.003l0.002,0.002
		l0,0l0.002,0.002l0.002,0.002l0,0l0.002,0.002l0.002,0.003l0.001,0l0.001,0.002l0.002,0.002l0.001,0.001l0.001,0.001l0.002,0.002
		l0.002,0.002l0,0l0.002,0.002l0.002,0.003l0.002,0.002l0.002,0.002l0,0l0.001,0.002l0.002,0.002l0.001,0.001l0.001,0.001
		l0.002,0.002l0.002,0.002l0,0.001l0.002,0.002c-1.339,1.651-2.746,3.248-4.211,4.783c-1.633,1.71-3.338,3.343-5.105,4.89
		c-6.211,5.439-13.263,9.888-20.781,13.041c-7.269,3.049-14.966,4.883-22.75,5.225c-4.638,0.204-9.076-0.132-13.26-0.95
		c-4.109-0.803-7.97-2.072-11.534-3.75l0.518-2.018l6.382-24.852l0.109-0.424l-0.33-0.285l-7.028-6.06
		c0.37-1.487,0.798-2.97,1.277-4.444c0.442-1.358,0.927-2.699,1.451-4.021h0.069H62.9H63.145z M40.537,186.805
		c2.355-3.788,5.061-7.387,8.066-10.739l-5.892,23.599l-8.33-0.464C36.01,194.909,38.082,190.755,40.537,186.805z M43.218,201.109
		l0.584,0.033l0.05-0.199l13.203,11.967l5.301,4.805l-0.002,0.007c-2.689,0-5.506,0.121-8.179-0.069l-0.062-0.052l-12.482-10.687
		l-7.362-6.303L43.218,201.109z M29.703,216.349l9.373,0.798l-5.886,23.577C30.239,233.531,28.943,225.278,29.703,216.349z"/>
	<path d="M73.189,234.693c0.462,0.518,0.992,0.973,1.577,1.352c0.58,0.376,1.214,0.68,1.891,0.9
		c0.419,0.136,0.861,0.241,1.324,0.313c0.458,0.07,0.92,0.107,1.381,0.107c1.219,0,2.424-0.241,3.56-0.679
		c1.171-0.451,2.263-1.109,3.218-1.927c0.971-0.831,1.815-1.834,2.466-2.958c0.626-1.081,1.075-2.275,1.29-3.536
		c0.199-1.164,0.182-2.292-0.021-3.343c-0.212-1.096-0.627-2.11-1.214-2.998c-0.053-0.081-0.122-0.179-0.206-0.294
		c-0.082-0.113-0.156-0.21-0.219-0.289c-0.752-0.939-1.715-1.701-2.837-2.221c-1.072-0.497-2.288-0.773-3.602-0.773
		c-1.301,0-2.579,0.272-3.773,0.762c-1.233,0.506-2.375,1.246-3.357,2.157c-0.964,0.895-1.777,1.959-2.38,3.135
		c-0.584,1.139-0.971,2.381-1.108,3.673c-0.135,1.275-0.015,2.482,0.315,3.577C71.841,232.804,72.424,233.835,73.189,234.693z
		 M75.679,231.023c0.259-2.448,1.483-4.706,3.267-6.362c1.806-1.675,4.176-2.728,6.648-2.728c0.48,0,0.945,0.04,1.392,0.116
		c0.05,0.059,0.1,0.118,0.148,0.179c0.073,0.091,0.134,0.17,0.18,0.234c0.044,0.061,0.101,0.143,0.168,0.244
		c0.484,0.732,0.828,1.572,1.004,2.483c0.172,0.888,0.185,1.845,0.015,2.839c-0.186,1.093-0.576,2.128-1.118,3.065
		c-0.57,0.984-1.31,1.864-2.161,2.592c-0.84,0.718-1.791,1.294-2.804,1.683c-0.97,0.373-2.003,0.579-3.056,0.579
		c-0.412,0-0.801-0.029-1.165-0.085c-0.376-0.058-0.745-0.147-1.103-0.263c-0.261-0.085-0.514-0.184-0.756-0.296
		C75.764,234.055,75.513,232.596,75.679,231.023z"/>
</g>
<g>
	<path fill="#000000" d="M110.635,99.272c-0.058-0.145-0.111-0.292-0.157-0.443v-0.003c-0.232-0.756-0.317-1.59-0.222-2.469
		c0.095-0.885,0.366-1.738,0.775-2.517c0.42-0.803,0.986-1.53,1.656-2.14c0.683-0.621,1.478-1.127,2.338-1.473
		c0.838-0.337,1.733-0.524,2.645-0.524c0.927,0,1.787,0.192,2.547,0.537c1.299,0.616,2.842,2.715,2.617,4.19l-0.013,0.046
		l-0.002,0.005c-0.04,0.133-0.082,0.266-0.128,0.397l-0.003,0.008c-0.035,0.1-0.071,0.2-0.11,0.299l-0.015,0.038l-0.004,0.011
		l-0.074,0.184l-0.005,0.012l-0.015,0.036l-0.005,0.013l-0.015,0.035l-0.006,0.013l-0.015,0.035l-0.006,0.014l-0.015,0.035
		l-0.05,0.111l-0.015,0.033l-0.007,0.015l-0.022,0.048l-0.015,0.032l-0.008,0.016l-0.015,0.032l-0.008,0.016l-0.015,0.031
		l-0.008,0.017l-0.015,0.031l-0.009,0.017l-0.015,0.03l-0.009,0.017l-0.049,0.094l-0.015,0.029l-0.01,0.018l-0.015,0.028
		l-0.01,0.019l-0.015,0.027l-0.01,0.019l-0.015,0.027l-0.011,0.019l-0.014,0.027l-0.011,0.019L122,96.406l-0.011,0.02l-0.014,0.026
		l-0.012,0.02l-0.014,0.025l-0.012,0.02l-0.015,0.025l-0.012,0.021l-0.014,0.024l-0.013,0.021l-0.014,0.024l-0.014,0.023
		l-0.057,0.094l-0.013,0.022l-0.015,0.024l-0.014,0.022l-0.015,0.024l-0.014,0.022l-0.016,0.025l-0.014,0.021l-0.016,0.025
		l-0.013,0.021l-0.016,0.025l-0.013,0.02l-0.016,0.026l-0.013,0.02l-0.017,0.026l-0.013,0.019l-0.017,0.026l-0.013,0.019
		l-0.018,0.026l-0.031,0.045l-0.013,0.019l-0.019,0.026l-0.012,0.018l-0.019,0.027l-0.013,0.018l-0.019,0.027l-0.012,0.017
		l-0.019,0.027l-0.012,0.017l-0.02,0.028l-0.012,0.016l-0.021,0.028l-0.012,0.016l-0.021,0.028l-0.012,0.016l-0.021,0.028
		l-0.011,0.015l-0.022,0.028l-0.011,0.015l-0.022,0.028l-0.011,0.014l-0.022,0.029l-0.011,0.014l-0.023,0.029l-0.011,0.014
		l-0.023,0.029l-0.011,0.013l-0.023,0.029l-0.011,0.013l-0.024,0.03l-0.01,0.012l-0.024,0.03l-0.01,0.012l-0.025,0.03l-0.01,0.012
		l-0.025,0.03l-0.009,0.011l-0.026,0.031l-0.009,0.011l-0.026,0.03l-0.009,0.011l-0.026,0.03l-0.009,0.01l-0.027,0.031l-0.009,0.01
		l-0.027,0.031l-0.009,0.009l-0.028,0.031l-0.008,0.009l-0.029,0.031l-0.008,0.009l-0.029,0.032l-0.008,0.008l-0.029,0.032
		l-0.008,0.008l-0.03,0.032l-0.007,0.008l-0.031,0.032l-0.007,0.007l-0.031,0.032l-0.006,0.007l-0.031,0.032l-0.006,0.006
		l-0.032,0.033l-0.006,0.006l-0.032,0.032l-0.006,0.006l-0.032,0.033l-0.005,0.006l-0.033,0.033l-0.005,0.005l-0.034,0.033
		l-0.005,0.005l-0.034,0.033l-0.004,0.004l-0.035,0.033l-0.004,0.004l-0.035,0.034l-0.004,0.004l-0.036,0.034l-0.003,0.003
		l-0.036,0.034l-0.003,0.003l-0.037,0.034l-0.003,0.003l-0.037,0.034l-0.003,0.003l-0.037,0.034l-0.002,0.002l-0.038,0.034
		l-0.002,0.002l-0.039,0.034l-0.002,0.002l-0.039,0.034l-0.001,0.001l-0.039,0.034l-0.001,0.001l-0.04,0.035l-0.001,0l-0.041,0.035
		l0,0l-0.041,0.035c-0.874,0.733-1.871,1.322-2.938,1.725h-0.003c-1.042,0.393-1.603,0.61-2.719,0.61h-0.547h-0.005h-0.006h-0.005
		h-0.006h-0.006h-0.006l-0.018,0h-0.006h-0.006l-0.012,0h-0.006C111.851,101.591,110.963,99.926,110.635,99.272"/>
</g>
</svg>
