<?xml version="1.0" encoding="utf-8"?>
<!-- Generator: Adobe Illustrator 17.0.0, SVG Export Plug-In . SVG Version: 6.00 Build 0)  -->
<!DOCTYPE svg PUBLIC "-//W3C//DTD SVG 1.1//EN" "http://www.w3.org/Graphics/SVG/1.1/DTD/svg11.dtd">
<svg version="1.1" id="Layer_1" xmlns="http://www.w3.org/2000/svg" xmlns:xlink="http://www.w3.org/1999/xlink" x="0px" y="0px"
	 width="72.668px" height="224.095px" viewBox="0 0 72.668 224.095" enable-background="new 0 0 72.668 224.095"
	 xml:space="preserve" xmlns:pulse="-">
<g>
	<path fill-rule="evenodd" clip-rule="evenodd" d="M34.005,17.917c-1.61,1.61-0.467,4.392,1.822,4.392
		c0.712,0,1.355-0.288,1.819-0.754c1.006-1.006,1.004-2.637,0-3.641C36.645,16.913,35.013,16.911,34.005,17.917z"/>
</g>
<g>
	<path d="M72.58,21.457C65.31,8.222,51.421,0,36.334,0C21.248,0,7.359,8.222,0.087,21.457L0,21.617L0,219.83
		c0.106,2.497,1.659,4.211,3.882,4.266h64.911l0.009-0.001c2.205-0.054,3.758-1.768,3.865-4.295V21.617L72.58,21.457z
		 M68.776,222.677L3.9,222.678c-1.742-0.043-2.425-1.531-2.483-2.879V21.981C8.463,9.292,21.825,1.417,36.334,1.417
		S64.205,9.292,71.25,21.981l0.001,197.788C71.192,221.145,70.512,222.63,68.776,222.677z"/>
	<path d="M36.334,7.625c-11.756,0-22.472,5.969-28.666,15.967l-0.043,0.069v192.808h57.417V23.661L65,23.592
		C58.806,13.594,48.09,7.625,36.334,7.625z M64.476,215.903H8.192V23.823c6.097-9.789,16.61-15.63,28.142-15.63
		c11.531,0,22.045,5.841,28.142,15.63V215.903z"/>
	<path d="M23.04,36.539c0.724,0,1.303-0.225,1.735-0.674c0.433-0.449,0.649-1.072,0.649-1.868c0-0.803-0.218-1.429-0.654-1.88
		c-0.436-0.451-1.018-0.676-1.744-0.676c-0.401,0-0.755,0.065-1.063,0.195c-0.231,0.096-0.443,0.244-0.638,0.444
		c-0.194,0.2-0.347,0.425-0.459,0.676c-0.15,0.341-0.225,0.762-0.225,1.265c0,0.785,0.216,1.4,0.649,1.848
		S22.307,36.539,23.04,36.539z M22.044,32.714c0.251-0.281,0.582-0.422,0.992-0.422c0.411,0,0.739,0.139,0.987,0.417
		c0.248,0.278,0.372,0.699,0.372,1.264c0,0.572-0.127,1-0.382,1.287c-0.254,0.286-0.58,0.429-0.977,0.429
		c-0.396,0-0.724-0.144-0.982-0.432s-0.387-0.711-0.387-1.27C21.667,33.42,21.793,32.996,22.044,32.714z"/>
	<polygon points="27.136,33.241 29.123,36.456 30.122,36.456 30.122,31.526 29.197,31.526 29.197,34.818 27.179,31.526
		26.211,31.526 26.211,36.456 27.136,36.456 	"/>
	<path d="M24.257,172.145h1.409l-0.712-1.138c-0.281-0.454-0.505-0.77-0.67-0.947c-0.166-0.178-0.376-0.341-0.631-0.489
		c0.512-0.074,0.897-0.254,1.154-0.539c0.257-0.285,0.386-0.646,0.386-1.085c0-0.345-0.085-0.65-0.255-0.919
		c-0.169-0.268-0.396-0.454-0.678-0.559c-0.283-0.105-0.735-0.157-1.359-0.157h-2.479v5.833h1.178v-2.436h0.239
		c0.271,0,0.468,0.022,0.593,0.066c0.125,0.043,0.243,0.124,0.354,0.242s0.318,0.404,0.621,0.857L24.257,172.145z M22.471,168.779
		h-0.872v-1.48h0.919c0.478,0,0.764,0.007,0.859,0.021c0.191,0.031,0.339,0.107,0.444,0.229c0.104,0.121,0.157,0.279,0.157,0.476
		c0,0.175-0.04,0.321-0.12,0.438c-0.08,0.117-0.189,0.199-0.33,0.247S23.036,168.779,22.471,168.779z"/>
	<polygon points="30.627,167.298 30.627,166.312 26.302,166.312 26.302,172.145 30.739,172.145 30.739,171.163 27.48,171.163
		27.48,169.575 30.409,169.575 30.409,168.591 27.48,168.591 27.48,167.298 	"/>
	<polygon points="36.262,172.145 37.355,172.145 37.355,166.312 35.589,166.312 34.543,170.29 33.485,166.312 31.722,166.312
		31.722,172.145 32.816,172.145 32.816,167.553 33.97,172.145 35.104,172.145 36.262,167.553 	"/>
	<path d="M41.125,172.245c0.856,0,1.541-0.266,2.053-0.798s0.769-1.269,0.769-2.21c0-0.95-0.259-1.691-0.774-2.225
		s-1.203-0.8-2.063-0.8c-0.475,0-0.894,0.077-1.257,0.23c-0.273,0.114-0.524,0.289-0.754,0.525s-0.411,0.503-0.543,0.8
		c-0.178,0.403-0.267,0.902-0.267,1.496c0,0.929,0.256,1.657,0.768,2.187S40.258,172.245,41.125,172.245z M39.947,167.718
		c0.297-0.333,0.688-0.499,1.174-0.499s0.874,0.164,1.168,0.493c0.293,0.329,0.439,0.828,0.439,1.496
		c0,0.677-0.15,1.184-0.452,1.522c-0.301,0.338-0.687,0.507-1.155,0.507c-0.47,0-0.857-0.17-1.162-0.512
		c-0.305-0.341-0.458-0.841-0.458-1.502C39.501,168.553,39.649,168.051,39.947,167.718z"/>
	<polygon points="47.355,172.145 47.355,167.298 49.082,167.298 49.082,166.312 44.446,166.312 44.446,167.298 46.178,167.298
		46.178,172.145 	"/>
	<polygon points="54.167,167.298 54.167,166.312 49.842,166.312 49.842,172.145 54.278,172.145 54.278,171.163 51.019,171.163
		51.019,169.575 53.948,169.575 53.948,168.591 51.019,168.591 51.019,167.298 	"/>
	<path d="M20.951,180.043c-0.226,0.199-0.495,0.299-0.808,0.299c-0.425,0-0.77-0.156-1.035-0.47
		c-0.266-0.313-0.398-0.838-0.398-1.575c0-0.695,0.135-1.198,0.404-1.509c0.269-0.31,0.62-0.465,1.052-0.465
		c0.313,0,0.579,0.087,0.798,0.263c0.219,0.175,0.363,0.413,0.432,0.716l1.166-0.278c-0.133-0.467-0.332-0.825-0.597-1.074
		c-0.446-0.422-1.025-0.633-1.739-0.633c-0.817,0-1.477,0.269-1.978,0.806c-0.501,0.537-0.752,1.291-0.752,2.262
		c0,0.918,0.25,1.642,0.748,2.171c0.499,0.529,1.136,0.794,1.91,0.794c0.626,0,1.143-0.154,1.55-0.464
		c0.407-0.309,0.698-0.781,0.874-1.418l-1.142-0.362C21.338,179.532,21.176,179.845,20.951,180.043z"/>
	<path d="M26.171,175.317c-0.475,0-0.894,0.077-1.257,0.23c-0.273,0.114-0.525,0.289-0.754,0.525
		c-0.229,0.236-0.411,0.503-0.543,0.8c-0.178,0.403-0.267,0.902-0.267,1.496c0,0.929,0.256,1.657,0.768,2.187
		c0.512,0.529,1.202,0.794,2.069,0.794c0.857,0,1.542-0.266,2.053-0.798c0.512-0.532,0.768-1.269,0.768-2.21
		c0-0.95-0.258-1.691-0.774-2.225S27.031,175.317,26.171,175.317z M27.339,179.835c-0.301,0.338-0.687,0.507-1.156,0.507
		c-0.469,0-0.856-0.17-1.162-0.512c-0.305-0.341-0.458-0.841-0.458-1.502c0-0.671,0.148-1.173,0.445-1.506
		c0.297-0.333,0.688-0.499,1.174-0.499c0.486,0,0.875,0.164,1.168,0.493s0.44,0.828,0.44,1.496
		C27.791,178.99,27.64,179.497,27.339,179.835z"/>
	<polygon points="33.473,179.312 31.086,175.416 29.94,175.416 29.94,181.249 31.034,181.249 31.034,177.446 33.386,181.249
		34.567,181.249 34.567,175.416 33.473,175.416 	"/>
	<polygon points="35.395,176.403 37.125,176.403 37.125,181.249 38.304,181.249 38.304,176.403 40.03,176.403 40.03,175.416
		35.395,175.416 	"/>
	<path d="M44.655,179.164c-0.165-0.178-0.376-0.341-0.63-0.489c0.512-0.074,0.896-0.254,1.153-0.539
		c0.258-0.285,0.387-0.646,0.387-1.085c0-0.345-0.085-0.65-0.255-0.919c-0.17-0.268-0.396-0.454-0.679-0.559
		c-0.282-0.105-0.735-0.157-1.358-0.157h-2.479v5.833h1.178v-2.436h0.239c0.271,0,0.468,0.022,0.593,0.066
		c0.124,0.043,0.242,0.124,0.354,0.242c0.112,0.118,0.318,0.404,0.621,0.857l0.852,1.27h1.408l-0.712-1.138
		C45.045,179.658,44.821,179.342,44.655,179.164z M42.844,177.883h-0.872v-1.48h0.919c0.478,0,0.765,0.007,0.86,0.021
		c0.19,0.031,0.338,0.107,0.443,0.229c0.104,0.121,0.157,0.279,0.157,0.476c0,0.175-0.04,0.321-0.119,0.438
		c-0.08,0.117-0.19,0.199-0.331,0.247S43.408,177.883,42.844,177.883z"/>
	<path d="M49.257,175.317c-0.475,0-0.894,0.077-1.257,0.23c-0.273,0.114-0.524,0.289-0.754,0.525s-0.411,0.503-0.543,0.8
		c-0.178,0.403-0.267,0.902-0.267,1.496c0,0.929,0.256,1.657,0.768,2.187s1.202,0.794,2.069,0.794c0.856,0,1.541-0.266,2.053-0.798
		s0.769-1.269,0.769-2.21c0-0.95-0.259-1.691-0.774-2.225S50.117,175.317,49.257,175.317z M50.425,179.835
		c-0.301,0.338-0.687,0.507-1.155,0.507c-0.47,0-0.857-0.17-1.162-0.512c-0.305-0.341-0.458-0.841-0.458-1.502
		c0-0.671,0.148-1.173,0.446-1.506c0.297-0.333,0.688-0.499,1.174-0.499s0.874,0.164,1.168,0.493
		c0.293,0.329,0.439,0.828,0.439,1.496C50.877,178.99,50.727,179.497,50.425,179.835z"/>
	<polygon points="54.224,175.464 53.046,175.464 53.046,181.249 57.152,181.249 57.152,180.267 54.224,180.267 	"/>
	<path d="M38.59,32.756c-0.15,0.341-0.226,0.762-0.226,1.265c0,0.785,0.217,1.4,0.649,1.848s1.016,0.671,1.749,0.671
		c0.724,0,1.302-0.225,1.735-0.674c0.433-0.449,0.648-1.072,0.648-1.868c0-0.803-0.218-1.429-0.654-1.88
		c-0.436-0.451-1.017-0.676-1.743-0.676c-0.401,0-0.756,0.065-1.063,0.195c-0.231,0.096-0.443,0.244-0.638,0.444
		C38.855,32.28,38.702,32.505,38.59,32.756z M39.767,32.714c0.251-0.281,0.582-0.422,0.992-0.422s0.739,0.139,0.987,0.417
		s0.371,0.699,0.371,1.264c0,0.572-0.127,1-0.381,1.287c-0.255,0.286-0.58,0.429-0.978,0.429c-0.396,0-0.724-0.144-0.981-0.432
		s-0.387-0.711-0.387-1.27C39.391,33.42,39.516,32.996,39.767,32.714z"/>
	<polygon points="44.925,34.36 46.983,34.36 46.983,33.526 44.925,33.526 44.925,32.36 47.31,32.36 47.31,31.526 43.93,31.526
		43.93,36.456 44.925,36.456 	"/>
	<polygon points="49.132,34.36 51.19,34.36 51.19,33.526 49.132,33.526 49.132,32.36 51.517,32.36 51.517,31.526 48.137,31.526
		48.137,36.456 49.132,36.456 	"/>
	<polygon points="18.243,31.941 15.947,34.238 18.243,36.535 	"/>
	<polygon points="53.612,31.941 53.612,36.535 55.909,34.238 	"/>
	<path d="M36.92,53.151h-1.234l-2.252,5.782h1.238l0.478-1.313h2.312l0.505,1.313h1.27L36.92,53.151z M35.508,56.646l0.781-2.146
		l0.797,2.146H35.508z"/>
	<path d="M38.366,77.091c0.146-0.226,0.219-0.475,0.219-0.746c0-0.25-0.06-0.475-0.178-0.676s-0.266-0.362-0.443-0.483
		c-0.178-0.121-0.379-0.201-0.604-0.239c-0.226-0.038-0.566-0.057-1.024-0.057h-2.311v5.782h1.968
		c0.744-0.005,1.213-0.019,1.408-0.04c0.311-0.034,0.571-0.125,0.783-0.274s0.379-0.347,0.501-0.596s0.184-0.504,0.184-0.767
		c0-0.334-0.095-0.625-0.284-0.872c-0.189-0.248-0.46-0.422-0.813-0.525C38.022,77.487,38.22,77.317,38.366,77.091z M35.193,75.852
		h0.67c0.55,0,0.882,0.006,0.998,0.02c0.194,0.024,0.342,0.091,0.439,0.203c0.099,0.112,0.148,0.257,0.148,0.436
		c0,0.187-0.058,0.337-0.172,0.452c-0.114,0.114-0.271,0.183-0.471,0.207c-0.11,0.013-0.393,0.02-0.848,0.02h-0.765V75.852z
		 M37.498,79.432c-0.109,0.123-0.25,0.199-0.424,0.231c-0.113,0.023-0.38,0.036-0.801,0.036h-1.081v-1.546h0.942
		c0.531,0,0.876,0.028,1.036,0.083s0.28,0.143,0.365,0.264c0.084,0.121,0.126,0.268,0.126,0.442
		C37.662,79.146,37.607,79.31,37.498,79.432z"/>
	<path d="M36.451,102.793c0.621,0,1.133-0.153,1.536-0.459s0.692-0.775,0.866-1.406l-1.133-0.359
		c-0.097,0.423-0.258,0.733-0.48,0.931c-0.225,0.197-0.491,0.296-0.801,0.296c-0.42,0-0.762-0.155-1.025-0.465
		c-0.263-0.31-0.395-0.831-0.395-1.562c0-0.689,0.134-1.187,0.4-1.495c0.267-0.308,0.615-0.462,1.043-0.462
		c0.31,0,0.574,0.087,0.791,0.261c0.217,0.173,0.359,0.41,0.428,0.71l1.155-0.276c-0.131-0.463-0.328-0.818-0.591-1.065
		c-0.442-0.418-1.017-0.627-1.724-0.627c-0.81,0-1.463,0.266-1.96,0.798c-0.497,0.533-0.745,1.28-0.745,2.243
		c0,0.91,0.247,1.627,0.741,2.151C35.052,102.531,35.683,102.793,36.451,102.793z"/>
	<path d="M37.248,124.877c0.344-0.11,0.617-0.265,0.82-0.462c0.268-0.26,0.475-0.601,0.619-1.021
		c0.118-0.345,0.178-0.755,0.178-1.23c0-0.542-0.063-0.997-0.189-1.367c-0.126-0.369-0.311-0.682-0.553-0.937
		c-0.241-0.255-0.532-0.433-0.871-0.532c-0.252-0.073-0.62-0.11-1.101-0.11h-2.134v5.782h2.197
		C36.645,124.999,36.99,124.958,37.248,124.877z M35.185,124.025v-3.83h0.524c0.476,0,0.795,0.019,0.958,0.056
		c0.218,0.048,0.398,0.138,0.541,0.272c0.141,0.134,0.252,0.32,0.331,0.56c0.078,0.239,0.118,0.583,0.118,1.029
		c0,0.447-0.04,0.801-0.118,1.06c-0.079,0.259-0.181,0.445-0.306,0.558c-0.125,0.113-0.282,0.193-0.472,0.241
		c-0.145,0.037-0.38,0.055-0.706,0.055H35.185z"/>
	<polygon points="38.419,145.764 35.189,145.764 35.189,144.191 38.092,144.191 38.092,143.216 35.189,143.216 35.189,141.934
		38.309,141.934 38.309,140.956 34.021,140.956 34.021,146.739 38.419,146.739 	"/>
	<path d="M14.409,85.278h14.928c0.469,0,0.851-0.382,0.851-0.851V72.999c0-0.469-0.382-0.851-0.851-0.851H14.409
		c-0.469,0-0.851,0.382-0.851,0.851v11.429C13.558,84.896,13.94,85.278,14.409,85.278z M14.125,72.999
		c0-0.156,0.127-0.283,0.283-0.283h14.928c0.156,0,0.283,0.127,0.283,0.283v11.429c0,0.156-0.127,0.283-0.283,0.283H14.409
		c-0.156,0-0.283-0.127-0.283-0.283V72.999z"/>
	<path d="M58.056,72.148H43.127c-0.469,0-0.851,0.382-0.851,0.851v11.429c0,0.469,0.382,0.851,0.851,0.851h14.929
		c0.469,0,0.85-0.382,0.85-0.851V72.999C58.905,72.53,58.524,72.148,58.056,72.148z M58.339,84.428c0,0.156-0.127,0.283-0.283,0.283
		H43.127c-0.156,0-0.284-0.127-0.284-0.283V72.999c0-0.156,0.128-0.283,0.284-0.283h14.929c0.156,0,0.283,0.127,0.283,0.283V84.428z
		"/>
	<path d="M14.409,107.51h14.928c0.469,0,0.851-0.382,0.851-0.851V95.23c0-0.469-0.382-0.851-0.851-0.851H14.409
		c-0.469,0-0.851,0.382-0.851,0.851v11.429C13.558,107.128,13.94,107.51,14.409,107.51z M14.125,95.23
		c0-0.156,0.127-0.283,0.283-0.283h14.928c0.156,0,0.283,0.127,0.283,0.283v11.429c0,0.157-0.127,0.284-0.283,0.284H14.409
		c-0.156,0-0.283-0.127-0.283-0.284V95.23z"/>
	<path d="M58.056,94.379H43.127c-0.469,0-0.851,0.382-0.851,0.851v11.429c0,0.469,0.382,0.851,0.851,0.851h14.929
		c0.469,0,0.85-0.382,0.85-0.851V95.23C58.905,94.761,58.524,94.379,58.056,94.379z M58.339,106.659
		c0,0.157-0.127,0.284-0.283,0.284H43.127c-0.154,0-0.284-0.13-0.284-0.284V95.23c0-0.154,0.13-0.283,0.284-0.283h14.929
		c0.156,0,0.283,0.127,0.283,0.283V106.659z"/>
	<path d="M14.409,129.569h14.928c0.469,0,0.851-0.382,0.851-0.851v-11.429c0-0.469-0.382-0.85-0.851-0.85H14.409
		c-0.469,0-0.851,0.381-0.851,0.85v11.429C13.558,129.187,13.94,129.569,14.409,129.569z M14.125,117.289
		c0-0.156,0.127-0.283,0.283-0.283h14.928c0.156,0,0.283,0.127,0.283,0.283v11.429c0,0.156-0.127,0.284-0.283,0.284H14.409
		c-0.156,0-0.283-0.128-0.283-0.284V117.289z"/>
	<path d="M58.056,116.44H43.127c-0.469,0-0.851,0.381-0.851,0.85v11.429c0,0.469,0.382,0.851,0.851,0.851h14.929
		c0.469,0,0.85-0.382,0.85-0.851v-11.429C58.905,116.821,58.524,116.44,58.056,116.44z M58.339,128.718
		c0,0.156-0.127,0.284-0.283,0.284H43.127c-0.156,0-0.284-0.128-0.284-0.284v-11.429c0-0.156,0.128-0.283,0.284-0.283h14.929
		c0.156,0,0.283,0.127,0.283,0.283V128.718z"/>
	<path d="M30.187,150.56v-11.429c0-0.469-0.382-0.851-0.851-0.851H14.409c-0.469,0-0.851,0.382-0.851,0.851v11.429
		c0,0.469,0.382,0.85,0.851,0.85h14.928C29.806,151.41,30.187,151.029,30.187,150.56z M14.125,150.56v-11.429
		c0-0.156,0.127-0.284,0.283-0.284h14.928c0.156,0,0.283,0.128,0.283,0.284v11.429c0,0.156-0.127,0.283-0.283,0.283H14.409
		C14.252,150.843,14.125,150.716,14.125,150.56z"/>
	<path d="M58.056,138.281H43.127c-0.469,0-0.851,0.382-0.851,0.851v11.429c0,0.469,0.382,0.85,0.851,0.85h14.929
		c0.469,0,0.85-0.381,0.85-0.85v-11.429C58.905,138.663,58.524,138.281,58.056,138.281z M58.339,150.56
		c0,0.156-0.127,0.283-0.283,0.283H43.127c-0.156,0-0.284-0.127-0.284-0.283v-11.429c0-0.154,0.13-0.284,0.284-0.284h14.929
		c0.156,0,0.283,0.128,0.283,0.284V150.56z"/>
	<path d="M14.409,63.939h14.928c0.469,0,0.851-0.382,0.851-0.851V51.66c0-0.469-0.382-0.851-0.851-0.851H14.409
		c-0.469,0-0.851,0.382-0.851,0.851v11.429C13.558,63.558,13.94,63.939,14.409,63.939z M14.125,51.66
		c0-0.156,0.127-0.283,0.283-0.283h14.928c0.156,0,0.283,0.127,0.283,0.283v11.429c0,0.156-0.127,0.283-0.283,0.283H14.409
		c-0.156,0-0.283-0.127-0.283-0.283V51.66z"/>
	<path d="M35.827,23.301c1.965,0,3.564-1.599,3.564-3.565s-1.599-3.565-3.564-3.565c-1.966,0-3.565,1.599-3.565,3.565
		S33.861,23.301,35.827,23.301z M35.827,16.738c1.653,0,2.998,1.345,2.998,2.998s-1.345,2.998-2.998,2.998
		c-1.653,0-2.998-1.345-2.998-2.998S34.173,16.738,35.827,16.738z"/>
	<path d="M58.056,50.81H43.127c-0.469,0-0.851,0.382-0.851,0.851v11.429c0,0.469,0.382,0.851,0.851,0.851h14.929
		c0.469,0,0.85-0.382,0.85-0.851V51.66C58.905,51.191,58.524,50.81,58.056,50.81z M58.339,63.089c0,0.156-0.127,0.283-0.283,0.283
		H43.127c-0.154,0-0.284-0.129-0.284-0.283V51.66c0-0.156,0.128-0.283,0.284-0.283h14.929c0.156,0,0.283,0.127,0.283,0.283V63.089z"
		/>
</g>
<g>
	<rect pulse:initial="true" pulse:state="1" pulse:unit="02222" x="14.55" y="51.802" fill-rule="evenodd" clip-rule="evenodd" width="14.645" height="11.145"/>
</g>
<g>
	<rect pulse:state="0" pulse:unit="02222" x="43.269" y="51.802" fill-rule="evenodd" clip-rule="evenodd" width="14.645" height="11.145"/>
</g>
<g>
	<rect pulse:state="1" pulse:unit="20222" x="14.55" y="73.177" fill-rule="evenodd" clip-rule="evenodd" width="14.645" height="11.145"/>
</g>
<g>
	<rect pulse:state="0" pulse:unit="20222" x="43.269" y="73.177" fill-rule="evenodd" clip-rule="evenodd" width="14.645" height="11.145"/>
</g>
<g>
	<rect pulse:state="1" pulse:unit="22022" x="14.55" y="95.372" fill-rule="evenodd" clip-rule="evenodd" width="14.645" height="11.145"/>
</g>
<g>
	<rect pulse:state="0" pulse:unit="22022" x="43.269" y="95.372" fill-rule="evenodd" clip-rule="evenodd" width="14.645" height="11.145"/>
</g>
<g>
	<rect pulse:state="1" pulse:unit="22202" x="14.55" y="117.431" fill-rule="evenodd" clip-rule="evenodd" width="14.645" height="11.145"/>
</g>
<g>
	<rect pulse:state="0" pulse:unit="22202" x="43.269" y="117.431" fill-rule="evenodd" clip-rule="evenodd" width="14.645" height="11.145"/>
</g>
<g>
	<rect pulse:state="1" pulse:unit="22220" x="14.55" y="139.182" fill-rule="evenodd" clip-rule="evenodd" width="14.645" height="11.145"/>
</g>
<g>
	<rect pulse:state="0" pulse:unit="22220" x="43.269" y="139.182" fill-rule="evenodd" clip-rule="evenodd" width="14.645" height="11.145"/>
</g>
</svg>
